<?xml version="1.0" ?><!DOCTYPE svg  PUBLIC '-//W3C//DTD SVG 1.0//EN'  'http://www.w3.org/TR/2001/REC-SVG-20010904/DTD/svg10.dtd'><svg height="110px" style={{enableBackground:"new 0 0 110 110"}} version="1.0" viewBox="0 0 110 110" width="110px" xml:space="preserve" xmlns="http://www.w3.org/2000/svg" xmlns:xlink="http://www.w3.org/1999/xlink"><g id="Multicolor"><g><path d="M83,80c-0.615-1.333-1.698-2.394-3.043-2.982L65,73v-5.001l-3.243,3.241    c-1.125,1.125-2.651,1.757-4.242,1.757H55h-2.516c-1.591,0-3.116-0.632-4.242-1.757L45,67.999V73l-14.957,4.018    C28.698,77.606,27.615,78.667,27,80l-4,7h32h32L83,80z"
 style={{fill:"#FA5655"}}/><path d="M70,49c-0.423,0-0.741,0.102-1.004,0.243c-0.007-0.767,0.034-1.515,0-2.243H41.063    c-0.045,0.965-0.062,1.966-0.063,3v12.343c0,1.061,0.422,2.079,1.172,2.829l6.071,6.068c1.125,1.125,2.651,1.757,4.242,1.757H55    h2.516c1.591,0,3.116-0.632,4.242-1.757l6.071-6.068c0.75-0.75,1.172-1.768,1.172-2.829v-3.53c2.226-0.873,3-4.66,3-7.59    C72,50.111,71,49,70,49z" style={{fill:"#FA5655"}}/><g><circle cx="55" cy="84" r="2" style={{fill:"#FA5655"}}/></g><g><circle cx="55" cy="77" r="2" style={{fill:"#FA5655"}}/></g></g></g></g></svg>